<?xml version="1.0" standalone="no"?>
<!DOCTYPE svg PUBLIC "-//W3C//DTD SVG 20010904//EN"
 "http://www.w3.org/TR/2001/REC-SVG-20010904/DTD/svg10.dtd">
<svg version="1.0" xmlns="http://www.w3.org/2000/svg"
 width="450.000000pt" height="388.000000pt" viewBox="0 0 450.000000 388.000000"
 preserveAspectRatio="xMidYMid meet">
<metadata>
Created by potrace 1.15, written by Peter Selinger 2001-2017
</metadata>
<g transform="translate(0.000000,388.000000) scale(0.100000,-0.100000)"
fill="#000000" stroke="none">
<path d="M90 3842 c-20 -10 -42 -32 -52 -52 -17 -33 -18 -115 -18 -1293 0
-1366 -3 -1300 55 -1345 l28 -22 748 0 c412 0 749 -3 749 -7 0 -5 -18 -100
-41 -213 l-41 -205 -248 -250 c-210 -212 -249 -256 -255 -287 -10 -50 10 -103
48 -130 l32 -23 1160 0 1160 0 32 23 c38 27 58 80 48 130 -6 31 -45 75 -255
287 l-248 250 -41 205 c-23 113 -41 208 -41 213 0 4 338 7 750 7 l750 0 38 34
37 34 3 1279 c2 1201 1 1280 -15 1313 -10 20 -33 43 -53 52 -33 17 -157 18
-2165 18 -2008 0 -2132 -1 -2165 -18z m4140 -1352 l0 -1110 -1975 0 -1975 0 0
1110 0 1110 1975 0 1975 0 0 -1110z m-1549 -1547 l36 -183 -462 0 -462 0 34
173 c19 94 36 178 38 185 4 10 87 12 392 10 l387 -3 37 -182z m254 -553 l120
-120 -800 0 -800 0 120 120 120 120 560 0 560 0 120 -120z"/>
<path d="M861 3074 c-25 -32 -28 -84 -5 -84 9 0 21 14 27 30 16 42 47 48 104
19 58 -31 106 -98 134 -192 28 -92 22 -215 -16 -337 -29 -90 -133 -320 -145
-320 -4 0 -13 21 -20 48 -16 59 -29 423 -17 478 4 23 7 68 5 100 -2 48 -6 59
-22 62 -29 6 -36 -15 -36 -107 0 -94 -43 -261 -111 -434 -54 -137 -56 -140
-63 -87 -22 167 -46 404 -52 508 -6 106 -9 123 -23 120 -26 -5 -25 -141 4
-396 13 -125 26 -258 27 -297 3 -67 4 -70 28 -70 22 0 31 13 72 95 27 52 63
140 81 195 l34 100 6 -96 c13 -180 43 -299 76 -299 27 0 46 26 106 145 126
247 164 480 105 637 -50 133 -131 208 -226 208 -45 0 -56 -4 -73 -26z"/>
<path d="M2457 2906 c-3 -8 -2 -43 3 -78 20 -137 -35 -319 -162 -541 -27 -49
-51 -87 -53 -85 -4 4 -83 524 -92 608 -7 56 -11 65 -28 65 -18 0 -20 -6 -17
-55 2 -30 20 -172 42 -315 21 -143 42 -290 45 -327 10 -95 28 -92 98 15 126
189 207 401 215 557 2 52 0 111 -5 130 -10 36 -36 52 -46 26z"/>
<path d="M1532 2668 c-78 -396 -85 -476 -48 -532 13 -21 25 -26 55 -26 32 0
44 6 69 34 16 19 39 58 50 88 24 63 46 201 38 233 -15 60 -80 74 -129 28 -25
-24 -29 -25 -24 -8 11 37 65 320 69 355 2 29 0 35 -18 38 -20 3 -24 -10 -62
-210z m112 -224 c21 -81 -54 -284 -104 -284 -28 0 -35 41 -23 128 18 122 108
233 127 156z"/>
<path d="M1276 2499 c-87 -76 -132 -285 -80 -366 29 -45 164 -17 172 36 4 26
-8 26 -58 1 -22 -11 -46 -20 -54 -20 -21 0 -36 32 -36 78 0 37 3 40 49 62 27
12 66 40 87 61 32 32 38 46 42 92 3 41 0 57 -13 70 -26 27 -70 21 -109 -14z"/>
<path d="M2586 2499 c-87 -76 -132 -285 -80 -366 29 -45 164 -17 172 36 4 26
-8 26 -58 1 -22 -11 -46 -20 -54 -20 -21 0 -36 32 -36 78 0 37 3 40 49 62 27
12 66 40 87 61 32 32 38 46 42 92 3 41 0 57 -13 70 -26 27 -70 21 -109 -14z"/>
<path d="M2812 2478 c-7 -29 -24 -114 -37 -188 -14 -74 -27 -145 -30 -158 -5
-20 -2 -23 17 -20 20 3 26 16 49 98 46 168 96 248 164 259 31 5 40 11 40 26 0
15 -8 21 -29 23 -48 6 -75 -7 -107 -51 -29 -39 -30 -40 -23 -12 13 52 10 70
-11 73 -17 2 -22 -6 -33 -50z"/>
<path d="M3324 2515 c-3 -8 -3 -18 0 -24 3 -5 -10 -85 -31 -179 -20 -93 -33
-177 -30 -186 7 -19 57 -22 75 -4 7 7 12 21 12 31 0 14 -5 18 -20 14 -12 -3
-20 0 -20 6 0 7 16 82 35 167 19 85 32 163 29 173 -7 21 -42 23 -50 2z"/>
<path d="M3085 2500 c-30 -34 -24 -102 19 -192 20 -42 36 -87 36 -100 0 -49
-48 -64 -79 -26 -21 25 -41 17 -41 -16 0 -31 30 -56 69 -56 46 0 70 16 87 57
19 43 13 74 -33 176 -38 87 -39 127 -1 127 12 0 29 -7 39 -16 20 -18 39 -11
39 15 0 49 -99 71 -135 31z"/>
<path d="M3546 2501 c-68 -45 -116 -157 -116 -271 0 -87 22 -120 80 -120 51 0
92 35 130 110 54 107 63 237 19 281 -25 25 -75 25 -113 0z m90 -57 c23 -91
-75 -312 -130 -291 -41 16 -44 98 -6 199 36 98 120 155 136 92z"/>
<path d="M3791 2458 c-22 -113 -50 -275 -53 -308 -2 -27 1 -35 15 -38 13 -3
22 7 35 40 30 80 131 274 151 292 20 18 21 18 28 1 3 -10 -3 -80 -15 -154 -27
-168 -28 -181 -3 -181 23 0 23 -2 52 176 29 179 23 217 -32 222 -31 3 -41 -2
-64 -30 -16 -18 -43 -64 -62 -103 -33 -70 -35 -59 -7 42 21 75 19 93 -10 93
-22 0 -26 -6 -35 -52z"/>
</g>
</svg>
